<?xml version="1.0" encoding="utf-8"?>
<svg version="1.1" id="Layer_1" xmlns="http://www.w3.org/2000/svg" xmlns:xlink="http://www.w3.org/1999/xlink" x="0px" y="0px"
	 viewBox="0 0 1000 1000" style="enable-background:new 0 0 1000 1000;" xml:space="preserve">
<g>
	<path d="M611.3,378.2l-13.2,22c116.9,74.2,197.1,147,240.7,218.3c16.3,25.4,30.6,38.1,43,38.1c22.1,0,33.2-12.4,33.2-37.1
		C915,554.7,813.8,474.3,611.3,378.2z"/>
	<path d="M756.8,714L708,776H525.4V378.7c27.3-9.1,41-18.2,41-27.3c0-12.4-24.4-20-73.2-23c25.1-37.1,53.7-88.4,85.9-153.8h335.4
		l10.8-21c-22.8-27-48.2-51.9-76.2-74.7l-56.6,70.8H76.2l9.3,24.9h418.9C413.2,383.9,269.2,556.5,72.3,692.2l17.1,22.5
		c153.3-92.4,278.3-206.9,375-343.3V776H185.9l10.8,24.9h267.7v135.5h61V800.9h284.2l12.2-19C802.5,758.7,780.9,736.1,756.8,714z"/>
</g>
</svg>
