<?xml version="1.0" encoding="utf-8"?>
<!-- Generator: Adobe Illustrator 26.2.1, SVG Export Plug-In . SVG Version: 6.00 Build 0)  -->
<svg version="1.1" id="Layer_1" xmlns="http://www.w3.org/2000/svg" xmlns:xlink="http://www.w3.org/1999/xlink" x="0px" y="0px"
	 viewBox="0 0 1000 1000" style="enable-background:new 0 0 1000 1000;" xml:space="preserve">
<g>
	<path d="M461.9,547.9c4.9-28,7.3-57.6,7.3-88.9V320.8H162.1l-9.8-24.9h399.9c35.5-55.7,67.2-133.3,95.2-232.9
		c64.4,23.8,96.7,42.8,96.7,57.1c0,9.4-15.6,14.7-46.9,15.6c-30.9,54.7-68.2,108.1-111.8,160.2h138.7l53.2-71.8
		c26.7,23.4,50.9,49,72.8,76.7l-11.7,20h-311v140.1c0,28-2.1,57-6.3,86.9h270.5l56.6-73.2c27.3,23.4,52.7,49.8,76.2,79.1l-12.2,19
		h-376C620.8,731,757.8,832.7,947.3,877.9c-24.8,18.5-41.7,38.1-50.8,58.6c-188.2-61.5-315.9-178-383.3-349.6
		c-43,192.7-190.9,313-443.8,360.8l-12.2-24.9C284,865.9,417.3,749.2,457,572.8H87.9l-9.8-24.9H461.9z M276.9,67.9
		c100.9,58.9,151.4,113.9,151.4,165c0,26.7-12,40-36.1,40c-16.6,0-29-14.6-37.1-43.9c-12.7-50.8-43.6-98.1-92.8-142.1L276.9,67.9z"
		/>
</g>
</svg>
