<?xml version="1.0" encoding="utf-8"?>
<svg version="1.1" id="Layer_1" xmlns="http://www.w3.org/2000/svg" xmlns:xlink="http://www.w3.org/1999/xlink" x="0px" y="0px"
	 viewBox="0 0 1000 1000" style="enable-background:new 0 0 1000 1000;" xml:space="preserve">
<g>
	<path d="M482.9,190.2V300H539V190.2h390.6l10.2-21c-17.9-22.1-38.9-43.8-63-64.9l-47.8,61H539.1v-62.8c27.3-10.1,41-19,41-26.9
		c0-13.7-32.4-21-97.2-22v111.6H62.5l10.2,24.9h410.2V190.2z"/>
	<path d="M870.1,799.8l-54.2,64.9H562v-124h281.7l11.2-19c-15.6-20.8-34.7-41.5-57.1-62L751,715.8H562V597.6h279.8l10.2-18.1
		c-16-19.8-35.6-40.5-59.1-62L748,572.8H562V455.6h322.8l12.2-18.1c-16-20.5-37-42.8-63-66.9l-50.3,60.1H544
		c29-30.9,50.6-57.9,64.9-81.1c28.6-1.9,43-7.3,43-16.1c0-13.7-31.2-28-93.8-43c-11.7,51.1-28.2,97.8-49.3,140.1H279.3
		c19.8-30.3,36.5-58.6,49.8-85c29.9-2.9,44.9-8.6,44.9-17.1c0-12.4-29-27-86.9-44C234,424,152.3,541.3,42,636.7l16.1,21
		c57.6-41.7,106.9-85.9,148-132.8v426.8h57.1v-62h660.6l11.2-19C916.8,847.5,895.2,823.9,870.1,799.8z M504.9,864.7H263.2v-124
		h241.7L504.9,864.7L504.9,864.7z M504.9,715.8H263.2V597.6h241.7L504.9,715.8L504.9,715.8z M504.9,572.8H263.2V455.6h241.7
		L504.9,572.8L504.9,572.8z"/>
</g>
</svg>
