<?xml version="1.0" encoding="utf-8"?>
<svg version="1.1" id="Layer_1" xmlns="http://www.w3.org/2000/svg" xmlns:xlink="http://www.w3.org/1999/xlink" x="0px" y="0px"
	 viewBox="0 0 1000 1000" style="enable-background:new 0 0 1000 1000;" xml:space="preserve">
<path d="M479.6,319.5v252.6L812.8,534l46.9-75.2c23.8,18.2,49.2,41.2,76.2,68.9l-7.3,20l-449,52.3v224.3c0,17.9,5.2,29.3,15.6,34.2
	c10.1,3.9,56.8,5.9,140.2,5.9c98.4,0,156-2.9,173-8.8c23.1-7.2,40.2-64.2,51.3-171l25.9,9.8c0,62.2,2.8,104.6,8.3,127
	c4.9,21.5,17.1,32.2,36.6,32.2c-2,28.3-12.9,45.9-32.7,52.8c-28,9.4-101.5,14.2-220.4,14.2c-130.3,0-205-4.1-224.3-12.2
	c-23.1-10.1-34.7-35-34.7-74.8V606.8L86.3,645.9L72.1,618l346.4-39.1V333.7c-99,22.5-198.2,37.5-297.5,44.9l-12.2-26.9
	c113.4-13.4,216.6-32.4,309.8-57.2V61.1c70.7,2.9,106,11.9,106,26.9c0,9.1-15,19.1-44.9,29.8v159.8
	c115.3-35.5,213.5-80.3,294.6-134.4c47.9,30.9,71.8,53.6,71.8,67.9c0,8.1-8,12.2-23.9,12.2c-8.1,0-20.5-1.6-37.1-4.9
	C683.4,259.7,581.6,293.5,479.6,319.5z"/>
</svg>
