<svg version="1.1" xmlns="http://www.w3.org/2000/svg" xmlns:xlink="http://www.w3.org/1999/xlink" viewBox="210 60 669 936"><path d="M867.75,409.5L795.75,347.5L763.75,327.5C753.083,322.167 745.417,318.833 740.75,317.5C732.583,316.667 720.917,309.667 705.75,296.5C695.25,288 685.917,283.333 677.75,282.5L581.75,231.5L573.75,225.5C561.75,205.167 556.75,177.083 558.75,141.25C559.083,137.417 559.417,133.5 559.75,129.5C561.083,114.167 561.75,97.8334 561.75,80.5C557.917,71.8334 549.917,65.5 537.75,61.5C535.083,60.1667 533.083,59.5 531.75,59.5C525.083,61.6667 518.333,68.9167 511.5,81.25L510.75,82.5C507.417,87.1667 506.25,95.4167 507.25,107.25C507.583,112.583 508.417,118.667 509.75,125.5L510.75,142.5L510.75,143.5C506.75,152.5 505.75,170.5 507.75,197.5C513.083,213.333 511.25,226.167 502.25,236L496.25,241.25C492.75,243.917 488.583,246.333 483.75,248.5L443.75,265.5L431.75,275.5L430.75,277.25L430.75,277.5C373.75,304.5 315.75,354.5 256.75,427.5L209.75,498.5L221.75,517.5C223.083,518.833 225.417,519.5 228.75,519.5L261.75,504.5C267.083,500.167 271.083,495.833 273.75,491.5C276.75,460 296.083,433.333 331.75,411.5C365.75,359.667 407.417,326.667 456.75,312.5C459.75,304.5 470.75,298.5 489.75,294.5C500.25,292.167 506.25,290.5 507.75,289.5C511.75,299 513.333,305.917 512.5,310.25L511.75,312.5L507.75,317.5C513.75,331 516.083,348.583 514.75,370.25C514.25,375.917 513.583,382 512.75,388.5C512.75,392.5 512.083,397.833 510.75,404.5L505.75,436.5C505.75,439.667 507.417,442.333 510.75,444.5C512.75,468.5 513.333,512 512.5,575C512.333,588.833 512.083,603.333 511.75,618.5C511.75,657.833 513.083,688.167 515.75,709.5C514.75,798.333 514.083,844 513.75,846.5C513.75,846.833 513.75,847.167 513.75,847.5C512.75,861.5 510.75,875.167 507.75,888.5C510.417,893.167 510.417,901.083 507.75,912.25L502.5,929.5C502.167,930.167 501.917,930.833 501.75,931.5C501.583,931.833 500.583,934.833 498.75,940.5C503.583,943.333 507.583,954.333 510.75,973.5C512.583,984.333 516.583,991.333 522.75,994.5C525.417,995.167 528.583,995.417 532.25,995.25C534.25,995.083 536.417,994.833 538.75,994.5C555.417,991.5 563.417,977.417 562.75,952.25C562.75,951.75 562.75,951.167 562.75,950.5C562.083,938.5 561.75,928.167 561.75,919.5C567.75,907.5 569.75,884.5 567.75,850.5C566.417,836.5 566.75,824 568.75,813C569.583,809 570.583,805.167 571.75,801.5C566.417,790.833 564.583,775.833 566.25,756.5C566.583,752.333 567.083,748 567.75,743.5C569.083,734.167 569.167,725.333 568,717C567.667,714.5 567.25,712 566.75,709.5C562.083,706.167 560.417,701.25 561.75,694.75C562.417,691.75 563.75,688.333 565.75,684.5C568.417,678.667 568.833,673.667 567,669.5C566,667 564.25,665 561.75,663.5C563.75,652.167 564,631.167 562.5,600.5C561.833,587.667 560.917,572.667 559.75,555.5C558.417,533.5 558.333,513.667 559.5,496C560,488.667 560.75,481.833 561.75,475.5C557.75,469.167 556.167,457.917 557,441.75C557.167,438.583 557.417,435.167 557.75,431.5C559.083,423.5 559.167,416.667 558,411C557.5,408.667 556.75,406.5 555.75,404.5C559.75,392.5 561.25,372.417 560.25,344.25C560.083,340.417 559.917,336.5 559.75,332.5C559.75,309.5 562.083,292.833 566.75,282.5C595.25,287.5 629.583,300.833 669.75,322.5C673.083,323.667 679.083,330 687.75,341.5C693.583,348.167 699.583,350.667 705.75,349C707.083,348.667 708.417,348.167 709.75,347.5C767.083,377.667 808.083,414 832.75,456.5C846.917,459.833 856.917,461.083 862.75,460.25C864.083,460.083 865.083,459.833 865.75,459.5C868.417,458.667 871.417,456 874.75,451.5C878.75,444.833 879.75,437.333 877.75,429C876.75,425 875.083,420.833 872.75,416.5C871.417,413.833 869.75,411.5 867.75,409.5ZM423.75,421.5L404.75,439.5C393.417,469.333 378.417,528 359.75,615.5C344.417,686.667 327.417,741 308.75,778.5L300.75,820.5C298.75,824.5 295.75,828.5 291.75,832.5C289.083,846.333 287.917,857.5 288.25,866C288.25,868.167 288.417,870 288.75,871.5C291.917,877.833 294.583,881.833 296.75,883.5C310.75,886.833 321.333,884.333 328.5,876C332,872 334.75,866.5 336.75,859.5L347.75,817.5C349.75,813.5 351.417,810.5 352.75,808.5C352.75,798.833 357.083,774.5 365.75,735.5C368.083,728.333 370.083,718.333 371.75,705.5C378.417,695.667 387.083,670.333 397.75,629.5C402.583,607.167 408.917,589.167 416.75,575.5C411.75,569.5 411.75,560.5 416.75,548.5C418.75,543.833 419.583,539.333 419.25,535C419.25,533.833 419.083,532.667 418.75,531.5C424.25,522.667 429.917,503.667 435.75,474.5C438.583,462.5 442.25,452.5 446.75,444.5C447.417,441.833 446,439.333 442.5,437L436,433.5L435.75,433.5C429.75,430.5 425.833,426.833 424,422.5C423.833,422.167 423.75,421.833 423.75,421.5ZM803.75,792.5C795.917,787.667 789.917,775.333 785.75,755.5C783.917,742.333 779.917,732.667 773.75,726.5C774.417,713.833 771.583,698.583 765.25,680.75C761.583,670.417 756.75,659.333 750.75,647.5C741.25,626.333 735.583,610.333 733.75,599.5L714.75,548.5C713.417,541.167 713.417,533.833 714.75,526.5C715.417,522.667 716.417,519 717.75,515.5L707.75,456.5C703.083,442.167 693.083,432.5 677.75,427.5C662.417,434.333 656.167,447.583 659,467.25L660.75,476.5C666.75,503.5 669.75,519.5 669.75,524.5C675.917,541.333 695.917,609.667 729.75,729.5L740.75,768.5C744.583,776.333 751.25,795.333 760.75,825.5C764.417,839.333 769.417,851 775.75,860.5C781.083,862.5 786.833,861.667 793,858C795.833,856.333 799.083,853.833 802.75,850.5C804.75,848.5 807.75,846.167 811.75,843.5L811.75,813.5L803.75,797.5Z"></path></svg>