<?xml version="1.0" encoding="utf-8"?>
<!-- Generator: Adobe Illustrator 26.2.1, SVG Export Plug-In . SVG Version: 6.00 Build 0)  -->
<svg version="1.1" id="Layer_1" xmlns="http://www.w3.org/2000/svg" xmlns:xlink="http://www.w3.org/1999/xlink" x="0px" y="0px"
	 viewBox="0 0 1000 1000" style="enable-background:new 0 0 1000 1000;" xml:space="preserve">
<path d="M674.8,700.4v242.4h-60.3V700.4H371.6C358.3,832.1,262.2,920.3,83.3,965.2l-14.5-23.4c149.3-52.2,230.1-132.7,242.4-241.4
	H52.4l-10-25.4h270.8V524.9c66.2,2,99.2,9.5,99.2,22.4c0,8-13.3,17.1-39.9,27.4V675h241.9V519.9c65.5,1,98.2,8.8,98.2,23.4
	c0,8.3-12.6,17.5-37.9,27.4V675h161.1l56.4-71.3c27.9,25.9,51,51.7,69.3,77.3l-11,19.4H674.8z M393.5,105.9l36.9-42.9
	c37.6,29.3,56.4,48.7,56.4,58.3c0,3.7-2.3,7-7,10l-22.4,15.5v351.6H402V131.4H87.3l-11.5-25.4H393.5z M77.8,315.9
	c90.1-49.5,158.9-107.6,206.5-174c45.2,21.6,67.8,37.7,67.8,48.4c0,9-14.1,13-42.4,12c-55.2,50.2-127.3,94.4-216.4,132.7L77.8,315.9
	z M805,105.9l36.9-45.9c41.2,30.6,61.8,51,61.8,61.3c0,4.3-2.5,8-7.5,11l-25.4,18.5v350.6h-56.4v-370H509.7l-11-25.4H805z
	 M78.8,495.4C187.9,442.6,271,373.4,328.2,288c45.2,21.6,67.8,38.2,67.8,49.9c0,9.6-14.1,14.5-42.4,14.5
	c-67.2,69.5-153.9,124.3-260.3,164.6L78.8,495.4z M496.8,311.4c86.4-46.2,154.6-103.4,204.5-171.6c45.5,21.3,68.3,37.7,68.3,49.4
	c0,8-14.3,12-42.9,12c-55.2,52.2-127.3,95.8-216.4,130.7L496.8,311.4z M506.2,473c99.4-50.9,178.4-115.2,236.9-193
	c44.2,25.6,66.3,43.6,66.3,53.9c0,8.3-14,12.5-41.9,12.5c-61.2,58.8-143.6,107.9-247.4,147.1L506.2,473z"/>
</svg>
