<?xml version="1.0" encoding="utf-8"?>
<!-- Generator: Adobe Illustrator 26.2.1, SVG Export Plug-In . SVG Version: 6.00 Build 0)  -->
<svg version="1.1" id="Layer_1" xmlns="http://www.w3.org/2000/svg" xmlns:xlink="http://www.w3.org/1999/xlink" x="0px" y="0px"
	 viewBox="0 0 1000 1000" style="enable-background:new 0 0 1000 1000;" xml:space="preserve">
<g>
	<path d="M390.5,220.8c0-25.9-28.4-50.9-85.6-75.3l-20.5,11.7c25,22.5,42.6,47.5,52.8,74.9c4.4,12.2,13.2,18.6,25.4,18.6
		C381.2,250.7,390.5,240.4,390.5,220.8z M553.4,184.2c0-30.8-31.3-55.8-94.4-74.9l-19.1,11.3c27.4,16.6,47,41.1,58.2,73.9
		c5.4,14.2,15.2,21,29.8,21.5C545.1,216,553.4,205.2,553.4,184.2z M583.3,630.3h97.4v96.3h-97.4V630.3z M149.3,630.3h98.3v96.3
		h-98.3V630.3z M401.3,726.6H298.6v-96.3h102.7V726.6z M837.2,726.6H732.5v-96.3h104.7V726.6z M168.4,176.3
		C371,147,516.3,119.6,604.3,93.7c31.3,5.4,47.5,3.9,47.9-3.4c0.5-12.7-21.5-27.9-65.6-46.5C492.3,79.5,349,116.2,158.2,152.8
		L168.4,176.3z M571.1,268.8c-127.7,57.7-277.9,103.7-450.6,137l12.2,23.5c183.9-27.4,340-66,467.7-115L571.1,268.8z M609.7,350
		c-131.6,70-296.5,121.8-493.1,155.6l9.3,23.5c209.4-28.9,377.2-71.9,503.4-129.6L609.7,350z M521.2,239.9
		c60.2,59.7,90.5,120.3,90.5,183c0,26.9-3.9,46-11.7,57.2c-8.3,11.7-24,17.6-46.5,17.6c-9.8,0-23-0.5-39.6-1
		c-16.6-1-37.7-3.4-63.1-6.8v25c20.1,3.4,36.7,6.4,49.4,9.3c13.2,2.4,23,5.9,30.3,9.8c13.7,6.8,21,18.6,22,34.7
		c38.6-2.4,67-12.7,84.6-31.3c19.6-20.5,29.8-55.3,29.8-104.2c0-41.1-9.8-78.8-29.4-113.5c-20.1-34.7-49.9-65.6-90.5-93L521.2,239.9
		z M157.7,311.4c286.7-45.5,493.1-93,620.8-142.9c21.5,4.4,36.7,6.4,46.5,5.9c9.8-0.5,15.2-3.4,15.2-9.3c-0.5-9.8-22-26.9-65.6-51.4
		c-149.7,68-358.6,125.7-626.7,173.2L157.7,311.4z M159.6,605.4c-19.1-9.3-40.1-17.6-62.1-25.9v212.2h51.9v-40.1h98.3v119.4
		c-43.1,3.4-106.6,6.4-191.3,8.8c11.3,54.8,23,82.2,36.2,82.2c8.3,0,14.7-11.7,20.1-35.2c121.8-13.2,222.1-28.4,301.4-45
		c5.9,11.7,10.8,24.5,15.2,38.2c4.9,20.1,14.2,30.3,27.9,30.3c21,0,31.3-11.7,31.3-35.2c0-45-40.6-88.1-122.3-129.6l-13.2,17.6
		c17.6,14.7,33.3,32.8,47.5,53.8c-25,2.9-58.7,6.4-101.8,10.3V751.6h102.7v29.8h51.9V645.5l23-15.2c3.9-2.9,5.9-5.9,5.9-8.8
		c0-9.3-18.1-27.4-54.8-54.3L393,605.4h-94.4v-15.2c25.4-9.3,38.2-17.6,38.2-25.9c0-11.7-29.8-19.1-89-22v63.1H159.6z M595.5,605.4
		c-20.1-9.3-41.1-18.1-63.1-25.9v212.2h50.9v-40.1h97.4v111.1c-60.2,3.4-118.9,5.4-177.1,6.4c9.8,54.8,21.5,82.2,34.7,82.2
		c7.3,0,14.2-11.3,20.1-34.2c118.9-10.3,221.6-24,308.7-41.1c7.3,12.2,13.7,25.4,19.1,40.1c5.9,18.6,15.2,27.9,27.9,27.9
		c22,0,33.3-11.3,33.3-34.2c0-47.9-45-90-135.5-126.2l-13.7,18.1c19.1,15.2,36.2,31.8,51.9,50.4l-117.4,8.8V751.6h104.7v29.8H889
		v-134l22-16.1c4.4-2.4,6.8-5.9,6.8-9.8c0-8.8-18.1-26.4-54.8-53.3l-32.8,37.2h-97.8v-20.1c25.4-9.3,38.2-17.1,38.2-24
		c0-11.3-29.8-19.1-90-23v67H595.5z"/>
</g>
</svg>
