<?xml version="1.0" encoding="utf-8"?>
<!-- Generator: Adobe Illustrator 26.2.1, SVG Export Plug-In . SVG Version: 6.00 Build 0)  -->
<svg version="1.1" id="Layer_1" xmlns="http://www.w3.org/2000/svg" xmlns:xlink="http://www.w3.org/1999/xlink" x="0px" y="0px"
	 viewBox="0 0 1000 1000" style="enable-background:new 0 0 1000 1000;" xml:space="preserve">
<path d="M167.5,214.3h23.8c18.2-47.4,32.1-100.9,41.9-160.6c62.3,14,93.4,28.2,93.4,42.8c0,7.8-13.1,14.1-39.4,19
	c-16.9,30.5-38.1,63.4-63.8,98.8H333l37-47.7c38.6,30.5,57.9,49.6,57.9,57.4c0,4.5-1.9,8.3-5.8,11.2l-23.4,20v239h-56v-44.8H162.6
	v133.8h181l36-46.2c39.3,31.5,58.9,52.2,58.9,62.3c0,3.6-1.9,6.8-5.8,9.7l-23.8,19v270.1h-56v-67.7H162.6v98.3h-57.9V184.1
	c15.3,6.2,32.3,14.3,51.1,24.3L167.5,214.3z M162.6,239.1v185.4h180.1V239.1H162.6z M162.6,608.1v197.6h190.3V608.1H162.6z
	 M653.2,529.7H450.7l-11.7-24.8h282.8c22.7-59.7,43-133.8,60.8-222.4c61.3,14.9,92,29.9,92,44.8c0,8.4-13.6,14.8-40.9,19
	c-18.8,45.4-45.7,98.3-80.8,158.7h81.8l44.8-60.8c15.9,12.3,37.8,34.9,65.7,67.7l-10.2,18H711.1v155.7h106.6l49.6-64.7
	c20.4,16.9,42,40.4,64.7,70.6l-9.7,19H711.1v241.4h-57.9V710.3H473.6l-8.8-24.8h188.4V529.7z M815.8,254.2l46.7-61.8
	c25.3,23,47.2,45.6,65.7,67.7l-10.7,19H473.6l-9.7-24.8H815.8z M538.8,280.5c63.6,62.6,95.4,118.4,95.4,167.4
	c0,30.5-12,45.7-36,45.7c-16.9,0-25.8-13.6-26.8-40.9c-1-50.3-18.2-103.3-51.6-159.1L538.8,280.5z M527.1,141.3L516,116.5h246.3
	l39.9-58.9c25.3,25,45.1,45.6,59.4,61.8l-11.2,21.9H527.1z"/>
</svg>
