<?xml version="1.0" encoding="utf-8"?>
<svg version="1.1" id="Layer_1" xmlns="http://www.w3.org/2000/svg" xmlns:xlink="http://www.w3.org/1999/xlink" x="0px" y="0px"
	 viewBox="0 0 1000 1000" style="enable-background:new 0 0 1000 1000;" xml:space="preserve">
<path d="M90.8,143.6l-11.2-24.9h720.2l52.7-62c27,22.8,50.4,45.1,70.3,66.9l-12.2,20H90.8z M528.3,249c13.3,50.1,36.1,91,68.4,122.6
	c64.1-48.2,121.1-105.3,170.9-171.4c49.5,31.2,74.2,53.9,74.2,67.9c0,7.5-8,11.2-23.9,11.2c-3.3,0-11.6-0.6-24.9-2
	c-50.8,41-108.9,78.8-174.3,113.3C688,445,796.1,482.4,942.9,502.9c-22.5,18.2-38.9,38.9-49.3,62c-215.8-58.3-340.2-146.8-373-265.6
	c-15,57.3-46.2,107.1-93.8,149.4c-41.7,37.1-88.7,65.9-141.1,86.4c-48.8,19.5-113.1,36.5-192.9,50.8l-11.2-23.4
	c260-56,390.1-174.5,390.1-355.5v-38.6c66.1,2,99.1,9.6,99.1,22.9c0,8.2-13.3,17.1-40,26.9c0,4.9-0.3,10.9-1,18.1L528.3,249z
	 M303.2,207l24.4,8.8c-3.3,74.5-24.4,134.3-63.5,179.2c-22.5,26.7-44.8,40-66.9,40c-21.8,0-32.7-10.4-32.7-31.2
	c0-12.4,10.2-24.9,30.8-37.6C248.4,332,284.3,279,303.2,207z M465,796.9C388.8,741.6,337.2,669,298.3,596.7H229l-9.8-24.9h459.4
	l40-45.9c43.9,34.8,65.9,57.1,65.9,66.9c0,5.9-4.2,10.1-12.7,12.7l-30.3,12.2c-48,72.9-103.8,128.2-175.1,175.8
	c93.4,37.1,216.5,62.2,369.1,75.2c-23.1,19.2-39.7,39.9-49.8,62c-139.7-14.7-263-49.6-370.1-105c-59.3,33.5-129.3,60.5-210,81.1
	c-57.6,14.3-132.7,28.3-225.1,42l-15.1-23.9C237.1,893.2,370.3,850.6,465,796.9z M510.9,768.6c66.7-42.6,130.2-110.5,168.7-171.9
	H332.5C371.6,664.7,468.2,746.7,510.9,768.6z"/>
</svg>
