<?xml version="1.0" encoding="utf-8"?>
<!-- Generator: Adobe Illustrator 26.2.1, SVG Export Plug-In . SVG Version: 6.00 Build 0)  -->
<svg version="1.1" id="Layer_1" xmlns="http://www.w3.org/2000/svg" xmlns:xlink="http://www.w3.org/1999/xlink" x="0px" y="0px"
	 viewBox="0 0 1000 1000" style="enable-background:new 0 0 1000 1000;" xml:space="preserve">
<path d="M325.2,455.1c-10.7-26-25.1-51.8-43-77.1l15.1-15.1c70,56,105,109,105,159.2c0,26.7-10.1,40-30.3,40
	c-17.9,0-27.8-12.7-29.8-38.1c-1-12.4-3.6-26.7-7.8-43c-36.1,7.5-60.5,12.9-73.2,16.1v454.6h-56.2V507.8
	c-33.2,6.2-69.2,12.2-107.9,18.1c-5.9,21.2-12.2,31.7-19,31.7c-12,0-23.1-26.9-33.2-80.6c20.2-0.7,51.6-2.4,94.2-5.4
	c66.4-96.7,123-198.9,169.9-306.6c52.7,20.2,79.1,37.1,79.1,50.8c0,9.1-13.7,14.2-41,15.1c-47.5,75.5-106.6,155.1-177.2,238.8
	C203.5,467.8,255.2,462.9,325.2,455.1z M673.3,577.1c33.9-84,57.5-181.2,70.8-291.5h-72.8c-16.6,86.3-41.5,162.4-74.7,228.5
	C625.7,536,651.2,557,673.3,577.1z M556.2,484.4c24.4-58.3,43.8-124.5,58.1-198.7h-81.5c-29.6,77.1-65.4,147.8-107.4,211.9l-21-13.7
	c59.2-112.3,101.1-256,125.5-431.2c61.2,11.1,91.8,23.8,91.8,38.1c0,7.8-12.7,14.8-38.1,21c-10.7,51.4-24.7,101.1-42,148.9h304.7
	l36.1-46.9c40.7,31.6,61,52.9,61,64c0,5.2-3.7,9.8-11.2,13.7l-22.9,13.2c-1,292.6-17.4,481.4-49.3,566.4
	c-18.9,50.8-59.7,75.7-122.6,74.7c1-19.5-10.1-33.9-33.2-43c-19.5-8.1-47.5-16.1-84-23.9v-26.9c46.5,7.2,87.2,10.7,122.1,10.7
	c36.8,0,59.7-14.6,68.8-43.9c27-86.9,41-264.6,42-533.2h-51.8c-17.3,135.4-45.7,246.9-85.4,334.5c0.3,0.7,0.8,1.3,1.5,2
	c37.8,42.6,56.6,80.2,56.6,112.8c0,23.4-10.4,35.2-31.2,35.2c-15,0-28.5-14.6-40.5-43.9c-5.9-13.7-12.7-27.3-20.5-41
	c-51.4,84-128.6,163.2-231.4,237.8l-18.1-19c94.4-81.1,166.5-171.2,216.3-270.5c-20.2-28-43.9-55.8-71.3-83.5
	c-0.7,1.3-1.3,2.4-2,3.4c-39.1,65.1-90.3,123.7-153.8,175.8l-17.1-18.1c57.3-57.6,103.4-122.6,138.2-194.8
	c-17.3-16-35.6-31.9-55.2-47.9l15.1-20C521.3,460.6,539.2,472.7,556.2,484.4z M288.1,589.8l19-11.7c55.3,63.2,83,122.4,83,177.7
	c0,31.9-11.1,47.9-33.2,47.9c-17.3,0-25.9-14.3-25.9-43C330.1,707,315.8,650.1,288.1,589.8z M58.1,882.8l-21-10.7
	c33.2-84.3,52.2-177.4,57.1-279.3c57.3,10.1,85.9,21.8,85.9,35.2c0,7.5-10.1,13.8-30.3,19C134.9,727.1,104.3,805.7,58.1,882.8z
	 M146,231.9c23.4-48.8,45.4-111.8,65.9-189c56,16,84,30.3,84,43c0,7.5-12.2,13.2-36.6,17.1c-27.3,51.1-59.1,99.1-95.2,144
	c11.1,10.7,19,19,23.9,24.9c14.6,17.3,22,34.5,22,51.8c0,24.7-11.4,37.1-34.2,37.1c-12.4,0-21.6-10.4-27.8-31.2
	c-12-40.7-42-82.5-89.8-125.5L72.3,187C97,198.4,121.6,213.4,146,231.9z"/>
</svg>
