<?xml version="1.0" encoding="utf-8"?>
<!-- Generator: Adobe Illustrator 26.2.1, SVG Export Plug-In . SVG Version: 6.00 Build 0)  -->
<svg version="1.1" id="Layer_1" xmlns="http://www.w3.org/2000/svg" xmlns:xlink="http://www.w3.org/1999/xlink" x="0px" y="0px"
	 viewBox="0 0 1000 1000" style="enable-background:new 0 0 1000 1000;" xml:space="preserve">
<path d="M169.1,717.5c28.4-5.5,69.7-14.8,124.2-27.9V528.3H169.1V717.5z M169.1,503.4h124.2V333.3H169.1V503.4z M293.3,145.1H169.1
	v163.3h124.2V145.1z M112.9,727.3V145.1H49.8L42,120.2h296.2l46.4-64c23.1,23.1,43.2,46.8,60.1,70.9l-11.2,18.1h-84.1v806.5h-56.2
	V720.5c-70.7,29-134.1,51.7-190.1,67.9c-3.9,23.5-9.6,35.2-17.1,35.2c-13.7,0-28-28.7-43-86C76.2,733.3,99.5,729.9,112.9,727.3z
	 M671.1,566.5c37.1-84.4,63.4-178.3,78.7-281.6h-76.3c-19.9,84.1-47.1,157.6-81.6,220.5C622.2,526.6,648.6,546.9,671.1,566.5z
	 M551.4,478c25.7-56.1,47.1-120.4,64-193.1h-89.9c-33.6,78.9-75.9,148.9-127.1,210.2l-21-13.7c77.6-117.3,128.1-260.5,151.5-429.7
	c61.3,11.1,91.9,23.8,91.9,38.1c0,7.8-12.7,14.8-38.1,21c-12.1,48.9-27.7,98.6-46.9,149.1H852l36.2-46.9c41.1,31.6,61.6,53,61.6,64
	c0,5.2-3.7,9.8-11.2,13.7l-23,13.2c-1.3,293-17.8,482-49.4,567c-18.9,50.8-60,75.8-123.2,74.8c1-19.6-9.9-33.9-32.8-43
	c-18.6-7.5-47.1-16.1-85.5-25.9V850c42,8.5,83.3,12.7,123.7,12.7c36.8,0,59.8-14.7,68.9-44c27-87,41.1-264.9,42-533.8h-52.8
	C787.6,411,757,518.2,714.6,606.6c4.9,5.2,9.6,10.3,14.2,15.2c37.8,42.7,56.7,80.3,56.7,112.9c0,23.5-10.4,35.2-31.3,35.2
	c-15,0-28.5-14.7-40.6-44c-8.5-19.2-19.1-38.8-31.8-58.7c-2.9,4.6-5.7,9-8.3,13.2c-59.6,92.9-144.7,173.7-255.2,242.5l-18.1-19.1
	c104.3-75.3,186.2-170.3,245.9-285c-21.2-25.7-46.1-52-74.8-78.7l-5.9,8.8c-42,63.5-96.5,119.8-163.3,168.6l-17.1-18.1
	c62.6-55.1,112.8-118.6,150.6-190.6c-19.9-17.3-41.4-34.5-64.5-51.8l15.2-20C509.2,451,530.8,464.6,551.4,478z"/>
</svg>
