<?xml version="1.0" encoding="utf-8"?>
<!-- Generator: Adobe Illustrator 26.2.1, SVG Export Plug-In . SVG Version: 6.00 Build 0)  -->
<svg version="1.1" id="Layer_1" xmlns="http://www.w3.org/2000/svg" xmlns:xlink="http://www.w3.org/1999/xlink" x="0px" y="0px"
	 viewBox="0 0 1000 1000" style="enable-background:new 0 0 1000 1000;" xml:space="preserve">
<path d="M139.1,145.4v112.3h88.3V145.4H139.1z M139.1,428.4v127.5h88.3V428.4H139.1z M139.1,282.7v120.6h88.3V282.7H139.1z
	 M149.9,120.4h193.7L385.8,66c17.3,16.7,35,36.5,53,59.3L428,145.4H277.4v112.3h45.1l35.8-50c20.3,19.9,36.5,38.9,48.6,56.9
	l-10.3,18.1H277.4v120.6h44.1l36.8-49c19.3,18,35.8,36.9,49.5,56.9l-12.3,17.2H277.4v127.5h62.3l33.3-41.2
	c36,30.1,53.9,49.5,53.9,58.4c0,2.9-2.3,5.9-6.9,8.8L399,596.1c-1,169-13.7,273.8-38.3,314.4c-15,27.5-42.8,41.2-83.4,41.2
	c-0.3-16-6.4-27.3-18.1-33.8c-10.8-5.9-32.7-11.6-65.7-17.2v-26c36.3,5.2,65.9,7.8,88.8,7.8c23.9,0,38.3-11.8,43.2-35.3
	c13.7-49,21.3-137.8,22.6-266.3H139.1v43.6h-52V89C101.9,95.2,122.8,105.7,149.9,120.4z M685.9,578.5c34-84.4,57.7-181.9,71.1-292.8
	H684c-16.7,86.6-41.7,163.1-75,229.5C638,537.1,663.7,558.2,685.9,578.5z M568.2,485.3c24.5-58.5,44-125.1,58.4-199.6h-72.1
	c-29.8,77.5-72.9,154-129.5,229.5L404,501.5C477.8,377.6,527,227.7,551.6,51.8C613,62.9,643.8,75.6,643.8,90
	c0,7.8-12.8,14.9-38.3,21.1c-10.8,51.7-24.8,101.5-42.2,149.6h286.4l36.3-47.1c40.9,31.7,61.3,53.1,61.3,64.2
	c0,5.2-3.8,9.8-11.3,13.7l-23,13.2c-1,293.9-17.5,483.5-49.5,568.9c-19,51-60,76-123.1,75c1-19.6-10.1-34-33.3-43.2
	c-19.6-8.2-47.7-16.2-84.4-24v-27c46.8,7.2,87.6,10.8,122.6,10.8c36.9,0,60-14.7,69.1-44.1c27.1-87.3,41.2-265.8,42.2-535.5h-42.2
	c-17.3,136-45.9,248-85.8,335.9c0.3,0.7,0.8,1.3,1.5,2C768,666.4,787,704.2,787,736.9c0,23.5-10.5,35.3-31.4,35.3
	c-15,0-28.6-14.7-40.7-44.1c-5.9-13.7-12.8-27.5-20.6-41.2c-51.7,84.4-129.1,164-232.5,238.8l-18.1-19.1
	c94.8-81.4,167.2-172,217.3-271.7c-20.3-28.1-44.1-56.1-71.6-83.9c-0.7,1.3-1.3,2.5-2,3.4c-39.2,65.4-90.7,124.2-154.5,176.5
	l-17.2-18.1c57.5-57.9,103.8-123.1,138.8-195.7c-17.3-16-35.8-32-55.4-48.1l15.2-20.1C533.3,461.4,551.2,473.5,568.2,485.3z
	 M183.3,663.8l19.1-11.3c40.2,50.3,60.3,95.5,60.3,135.4c0,24.2-9.3,36.3-28,36.3c-12.4,0-19.1-9-20.1-27
	C212.7,747.5,202.2,703,183.3,663.8z M237.7,645.6l16.2-13.2C300,667.7,323,702.9,323,737.8c0,20.9-8.3,31.4-25,31.4
	c-10.5,0-17.2-8.7-20.1-26C273.7,709.9,260.3,677.4,237.7,645.6z M131.3,672.6l21.1-5.9c23.5,52.6,35.3,98.4,35.3,137.3
	c0,36.9-10.8,55.4-32.4,55.4c-14.1,0-21.1-6.7-21.1-20.1c0-3.6,1-10,2.9-19.1C145.3,775.1,143.4,725.9,131.3,672.6z M79.8,668.7
	l23.5,2.9c4.6,31.7,6.9,60.5,6.9,86.3c0,93.8-17.8,140.7-53.5,140.7c-18,0-27-8.3-27-25c0-5.9,3.3-14.7,9.8-26.5
	C64.4,800.8,77.8,741.3,79.8,668.7z"/>
</svg>
