<?xml version="1.0" encoding="utf-8"?>
<!-- Generator: Adobe Illustrator 26.2.1, SVG Export Plug-In . SVG Version: 6.00 Build 0)  -->
<svg version="1.1" id="Layer_1" xmlns="http://www.w3.org/2000/svg" xmlns:xlink="http://www.w3.org/1999/xlink" x="0px" y="0px"
	 viewBox="0 0 1000 1000" enable-background="new 0 0 1000 1000" xml:space="preserve">
<path fill="#538135" d="M301.7,536.5H71.8l-14.2-24.9h767.9l51.7-67.9c28.7,26.3,52.1,50.9,70.3,73.7l-12.2,19.1H364.7
	c-11,40-22.5,76.1-34.2,108.4h391.1l40-46.3c39.4,31.5,59.1,51.7,59.1,60.5c0,3.9-3.1,7.9-9.3,11.7l-24.9,17
	c-15,134.1-44.9,214.9-89.8,242.6c-22.8,13.4-52.9,21-90.3,23c0-19.9-13.1-34.8-39.1-44.9c-23.1-8.5-61.6-17-115.7-25.9v-26.8
	c67.1,10.7,124.6,16.1,172.8,16.1c33.5,0,56.1-13.4,67.9-40c17.6-39.7,30.3-93.7,38.1-162.1H321.7c-11,28.3-23.8,56.3-38.1,84
	l-59.1-18.1C254.2,676.5,279.9,610.1,301.7,536.5z M233.9,434.5V478h-57.2V128c27.4,10.4,50,20.3,67.9,29.8h217.7v-106
	c64.1,1.9,96.1,10.2,96.1,24.9c0,8.5-13.4,17-40,25.9v55.1h232.4l37.2-43c41,30.6,61.5,50.3,61.5,59.1c0,4.6-3.1,8.8-9.3,12.7
	l-23,16.1v269h-57.2v-37.2H233.9V434.5z M518.4,278.8h241.7v-96.1H518.4V278.8z M518.4,303.7v105.9h241.7V303.7H518.4z M462.3,409.6
	V303.7H233.9v105.9L462.3,409.6L462.3,409.6z M462.3,278.8v-96.1H233.9v96.1H462.3z"/>
</svg>
