<?xml version="1.0" encoding="utf-8"?>
<!-- Generator: Adobe Illustrator 26.2.1, SVG Export Plug-In . SVG Version: 6.00 Build 0)  -->
<svg version="1.1" id="Layer_1" xmlns="http://www.w3.org/2000/svg" xmlns:xlink="http://www.w3.org/1999/xlink" x="0px" y="0px"
	 viewBox="0 0 1000 1000" enable-background="new 0 0 1000 1000" xml:space="preserve">
<path fill="#538135" d="M774.4,618.9v332h-57.8v-52.4H277.3v52.4h-57.8V624.8c-47.2,32-101.3,61.9-162.1,89.8l-12.7-20.9
	c117.5-62.5,218.2-147,301.9-253.4h-282l-10.2-24.7h311.2c28.8-39.8,53.7-82.5,74.7-128.1l-34,2.9c-83.8,4.9-152.5,8.1-205.8,9.7
	c-7.1,23.3-14.4,35-21.8,35c-14.2,0-24.7-28.8-31.5-86.4h108.3l57.8-1.4c37.8-51.3,73.2-115.3,106.2-192
	c55.7,19.8,83.5,36.6,83.5,50.5c0,8.4-14.6,13.1-43.7,14.1c-33.7,45.6-71.6,88-113.6,127.2h92.8c52.1-1,106.9-1.9,164.1-2.9
	l104.4-2.9c-26.9-26.9-62.7-54.7-107.3-83.5l11.7-19c84.8,34.7,148.2,72.8,190.3,114.6c20.4,20.4,30.6,39.6,30.6,57.8
	c0,21.7-9.7,32.5-29.1,32.5c-13.6,0-26.7-11.2-39.3-33.5c-6.8-12.7-17.4-27.2-32-43.7l-19,1.9c-81.5,6.5-145.8,11.2-192.7,14.1
	l-60.7,3.9c45.6,14.9,68.4,28.5,68.4,40.8c0,7.8-14.9,11.7-44.7,11.7c-15.5,28.2-31.5,53.7-48.1,76.7h392.2l50.5-65.5
	c20.4,17.4,40.7,37.4,60.7,59.7l7.8,9.7l-11.8,20.9H606.4c85.8,85.8,199.4,146.6,340.8,182.6c-19.1,15.2-33.7,33.9-43.7,55.9
	C853,660.2,810,640.3,774.4,618.9z M716.6,743.2H524.9v130.6h191.8V743.2H716.6z M716.6,718.5V598H524.9v120.4L716.6,718.5
	L716.6,718.5z M468.1,598H277.3v120.4h190.8V598z M288,573.3h416.6c-53.1-40.4-98-84.8-134.9-133h-152
	C377.5,489.8,334.3,534.2,288,573.3z M277.3,873.8h190.8V743.2H277.3V873.8z"/>
<text transform="matrix(1 0 0 1 46.2993 60.6096)" font-family="'IPAmjMincho'" font-size="12.1651px" letter-spacing="32">		</text>
</svg>
