<?xml version="1.0" encoding="utf-8"?>
<!-- Generator: Adobe Illustrator 26.2.1, SVG Export Plug-In . SVG Version: 6.00 Build 0)  -->
<svg version="1.1" id="Layer_1" xmlns="http://www.w3.org/2000/svg" xmlns:xlink="http://www.w3.org/1999/xlink" x="0px" y="0px"
	 viewBox="0 0 1000 1000" enable-background="new 0 0 1000 1000" xml:space="preserve">
<path fill="#538135" d="M465.9,619.8H189.1l-13.2-24.9h290V441.1C533.3,444,567,453,567,468c0,7.8-14,16.8-42,26.9v100.1h180.2
	l46.9-52.2c25.7,19.2,48.7,38.9,68.8,59.1l-10.7,18.1H525v331.1h-59.1V619.8z M293.1,177.9V57.8c65.4,0,98.1,7.3,98.1,22
	c0,8.1-13.7,16.8-41,25.9v72.3H400l45.4-58.1c26.7,22.1,49,43.5,66.9,64l-10.3,19H350.2V298h-57.1v-95.2H71.9l-9.8-24.9H293.1z
	 M501.1,316.1C396,453.1,246.7,558.8,53.3,633l-13.2-21c186.5-86.6,331.5-210.9,435.1-373c56,16,84,30.3,84,43
	c0,8.8-14.6,14.2-43.9,16.1c113,98.6,259.3,173.7,439,225.1c-19.9,18.9-33.2,39.6-40,62C747.5,525.2,609.8,435.6,501.1,316.1z
	 M635.9,177.9V57.8c64.8,0,97.2,7.6,97.2,22.9c0,8.1-13.3,16.9-40,26.4v70.8h127.9l47.9-62c28.6,22.8,52.7,45.4,72.3,67.9l-11.2,19
	H693V298h-57.1v-95.2H545l-10.3-24.9H635.9z M835.1,884c-11.4,0-23.6-9.9-36.6-29.8c-35.5-56.3-99.9-112-193.4-167l12.2-20
	C785.9,730,870.2,789.9,870.2,846.9C870.2,871.6,858.5,884,835.1,884z M101.2,926.9l-14.2-21c93.8-62.2,168.5-143.7,224.1-244.6
	c56,22.8,84,41.7,84,56.6c0,9.4-16.6,14.2-49.8,14.2C288.7,810.6,207.3,875.5,101.2,926.9z"/>
</svg>
