<?xml version="1.0" encoding="utf-8"?>
<!-- Generator: Adobe Illustrator 26.2.1, SVG Export Plug-In . SVG Version: 6.00 Build 0)  -->
<svg version="1.1" id="Layer_1" xmlns="http://www.w3.org/2000/svg" xmlns:xlink="http://www.w3.org/1999/xlink" x="0px" y="0px"
	 viewBox="0 0 1000 1000" enable-background="new 0 0 1000 1000" xml:space="preserve">
<path fill="#002060" d="M526.7,320.7v301.4h317.5l41.9-56.1c24.1,22.1,43.7,43.1,59,62.9L934,647H526.7v107.3h276.1l48.8-61
	c25.4,22.8,46,44.7,61.9,65.8l-12.7,20H526.7v172.7h-58V779.2H99.4l-11.2-24.9h380.4V647H64.8l-11.2-24.9h415.1V320.7H105.8
	l-11.7-24.9h707.2l44.9-59c22.8,22.1,42.8,44.1,60,65.8l-10.2,18H526.7z M850.1,457.8l43.9-60c22.1,21.1,41.1,42.8,57.1,64.9
	l-11.2,20H746.2v112.2h-56.1V482.7H564.7l-10.2-24.9h135.6V350c64.1,0,96.1,7.5,96.1,22.4c0,8.5-13.3,17.4-40,26.8v58.5H850.1z
	 M632.5,185.6h-99l-9.8-24.9h108.8V53.9c66,0,99,7.6,99,22.9c0,8.8-14,18-41.9,27.8v56.1h141l47.8-61c24.1,21.1,45,42.8,62.9,64.9
	l-9.8,21H689.6v80.5h-57.1V185.6z M303.8,185.6H75l-9.8-24.9h238.5V53c64.7,1,97.1,8,97.1,21c0,7.8-13.3,17.1-40,27.8v59H396
	l43.9-57.1c25.4,22.4,46.3,42.8,62.9,61l-10.2,21H360.9v80.5h-57.1V185.6z M349.6,457.8l32.2-48.3c21.5,19.8,39.7,38.2,54.6,55.1
	l-10.7,18H303.8v112.2h-57.1V482.7H60.9l-9.8-24.9h195.6V350c64.1,0,96.1,7.5,96.1,22.4c0,8.5-13,17.2-39,26.3v59H349.6z"/>
</svg>
