<?xml version="1.0" encoding="utf-8"?>
<!-- Generator: Adobe Illustrator 26.2.1, SVG Export Plug-In . SVG Version: 6.00 Build 0)  -->
<svg version="1.1" id="Layer_1" xmlns="http://www.w3.org/2000/svg" xmlns:xlink="http://www.w3.org/1999/xlink" x="0px" y="0px"
	 viewBox="0 0 1000 1000" enable-background="new 0 0 1000 1000" xml:space="preserve">
<path fill="#538135" d="M266.8,662.3c-2.9,138.8-65.5,235.9-187.6,291.4L64,933.2c97.6-63.7,146.4-156.6,146.4-278.7V498.7
	c54.9,2,82.3,9,82.3,21.1c0,4.9-8.7,10.9-26,18.1v8.8h486.8v-55.3c62,5.2,93.1,14.7,93.1,28.4c0,7.5-12.1,15.8-36.2,25v401.1h-56.8
	V662.3H531.8V920h-55.3V662.3H266.8z M266.8,637.3h486.8v-65.6H266.8V637.3z M522,293.5c19.6-30,36.7-66,51.4-107.8
	c45.4,16.3,68.1,30.4,68.1,42.1c0,8.2-11.4,12.2-34.3,12.2c-18.9,21.2-39,41.3-60.2,60.2c5.6,3.3,8.3,6.2,8.3,8.8
	c0,6.5-11.8,13.9-35.3,22V511h-53.4V285.2C498,289.4,516.4,292.2,522,293.5z M466.6,155.9V40.8c63.7,2,95.5,9.6,95.5,23
	c0,7.8-13.1,15.8-39.2,24v68.1h304.2L879,93.7c23.2,19.6,46.5,41.6,70,66.1l-11.8,21.1h-861l-8.8-25H466.6z M690,266.1
	c62.7-10.1,119.2-28.6,169.5-55.3c38.2,22.2,57.3,38.4,57.3,48.5c0,5.2-5.1,7.8-15.2,7.8c-9.5,0-19.1-1.3-28.9-3.9
	c-27.8,6.9-53.6,11.8-77.4,14.7c21.2,74.4,73.5,135.7,156.7,183.7c-17.6,12.7-30.7,29.2-39.2,49.5
	c-80.7-55.5-128.5-131.8-143.5-228.7c-28.1,3.9-55.5,6.9-82.3,8.8v142.5c40.2-5.9,76.6-12.9,109.2-21.1l7.3,23
	c-62.4,23.2-123.6,41.3-183.7,54.4c-3.9,19.9-9.3,29.9-16.2,29.9c-12.4,0-24-24.3-34.8-73c10.8-1.3,23.8-2.8,39.2-4.4
	s25-2.6,28.9-2.9V245c0.3,0,2.8,1,7.3,2.9c3.6,1.6,7.2,2.9,10.8,3.9C666.9,256.8,678.5,261.5,690,266.1z M184.5,277.8H82.1l-8.8-25
	H326l27.9-32.3c33,24.8,49.5,41,49.5,48.5c0,2-1.8,4.6-5.4,7.8l-14.7,11.8c-1,93.4-9.8,153.3-26.4,179.8
	c-12.4,20.2-34.4,31-66.1,32.3c-1-24.8-20.7-39.2-59.3-43.1v-24.5c13.7,2.9,26.4,4.4,38.2,4.4c26.8,0,43.3-6.7,49.5-20.1
	c8.2-18.6,12.7-65.1,13.7-139.6h-93.1c-4.2,122.8-60.7,209.6-169.5,260.6l-15.2-18.6C136.5,468.5,179.6,387.9,184.5,277.8z
	 M380.4,183.8c61.4,20.2,92.1,45.5,92.1,75.9c0,20.9-10.8,31.3-32.3,31.3c-13.1,0-21.1-8-24-24c-4.9-25.1-20.6-47.5-47-67.1
	L380.4,183.8z M582.7,700.5c81.6,53.2,122.4,103,122.4,149.4c0,24.2-10.8,36.2-32.3,36.2c-15.7,0-26-12.1-30.9-36.2
	c-7.8-43.1-32.5-88-74-134.7L582.7,700.5z M262.9,896c38.9-48,67.9-112.8,87.2-194.4c54.2,17,81.3,32.3,81.3,46
	c0,8.5-12.4,13.2-37.2,14.2c-23.8,56.5-61.5,106.6-113.1,150.4L262.9,896z"/>
</svg>
